<svg width="448" height="448" viewBox="0 0 448 448" fill="none" xmlns="http://www.w3.org/2000/svg">
<path d="M440.667 150.109L447.81 110.109C449.123 102.754 443.468 96 435.997 96H361.187L375.81 14.109C377.123 6.754 371.468 0 363.997 0H323.365C320.548 5.11667e-05 317.821 0.990994 315.661 2.79931C313.502 4.60762 312.047 7.11805 311.552 9.891L296.175 96H197.54L212.163 14.109C213.477 6.754 207.822 0 200.35 0H159.718C156.901 5.11667e-05 154.174 0.990994 152.014 2.79931C149.855 4.60762 148.4 7.11805 147.905 9.891L132.528 96H53.432C50.6152 96.0001 47.8882 96.991 45.7285 98.7993C43.5688 100.608 42.114 103.118 41.619 105.891L34.476 145.891C33.163 153.246 38.818 160 46.289 160H121.099L98.242 288H19.146C16.3292 288 13.6022 288.991 11.4425 290.799C9.28278 292.608 7.82804 295.118 7.33299 297.891L0.189988 337.891C-1.12301 345.246 4.53199 352 12.003 352H86.813L72.19 433.891C70.877 441.246 76.532 448 84.003 448H124.635C127.452 448 130.179 447.009 132.338 445.201C134.498 443.392 135.953 440.882 136.448 438.109L151.826 352H250.46L235.837 433.891C234.523 441.246 240.178 448 247.65 448H288.282C291.099 448 293.826 447.009 295.986 445.201C298.145 443.392 299.6 440.882 300.095 438.109L315.472 352H394.568C397.385 352 400.112 351.009 402.272 349.201C404.431 347.392 405.886 344.882 406.381 342.109L413.524 302.109C414.837 294.754 409.182 288 401.711 288H326.901L349.758 160H428.854C431.671 160 434.398 159.009 436.557 157.201C438.717 155.392 440.172 152.882 440.667 150.109V150.109ZM261.889 288H163.255L186.112 160H284.746L261.889 288Z" fill="#1DA1F2"/>
</svg>
